{"title":"Paranormal Activity The Marked Ones 2014 EX 720p Esub BluRay Dua","magnet":"magnet:?xt=urn:btih:2108562d7a25d74578befbca36b2a9043e05f24b&dn=Paranormal+Activity+The+Marked+Ones+2014+EX+720p+Esub+BluRay+Dua&tr=udp%3A%2F%2Ftracker.leechers-paradise.org%3A6969&tr=udp%3A%2F%2Fzer0day.ch%3A1337&tr=udp%3A%2F%2Fopen.demonii.com%3A1337&tr=udp%3A%2F%2Ftracker.coppersurfer.tk%3A6969&tr=udp%3A%2F%2Fexodus.desync.com%3A6969","uploader":"jatt13","categoryP":"video","categoryS":"movies","size":"557648853","seeders":"1","leechers":"53","description":"[center][img]https://lookimg.com/images/2017/10/23/K5R6A.jpg[/img]\r\nFormat                         : Matroska\r\nFormat version                 : Version 4 / Version 2\r\nFile size                      : 532 MiB\r\nDuration                       : 1 h 41 min\r\nOverall bit rate               : 735 kb/s\r\nMovie name                     : Paranormal Activity The Marked Ones 2014 EXTENDED \r\n\r\nVideo\r\nFormat                         : AVC\r\nCodec ID                       : V_MPEG4/ISO/AVC\r\nDuration                       : 1 h 41 min\r\nBit rate                       : 599 kb/s\r\nWidth                          : 1 280 pixels\r\nHeight                         : 720 pixels\r\nDisplay aspect ratio           : 16:9\r\nFrame rate mode                : Constant\r\nFrame rate                     : 23.976 (24000/1001) FPS\r\nStream size                    : 432 MiB (81%)\r\nWriting library                : x264 \r\n\r\nAudio #1\r\nFormat                         : AAC\r\nDuration                       : 1 h 41 min\r\nBit rate                       : 52.2 kb/s\r\nChannel(s)                     : 6 channels\r\nChannel positions              : Front: L C R, Side: L R, LFE\r\nSampling rate                  : 44.1 kHz\r\nFrame rate                     : 43.066 FPS (1024 SPF)\r\nStream size                    : 37.7 MiB (7%)\r\nLanguage                       : English\r\n\r\nAudio #2\r\nFormat                         : AAC\r\nDuration                       : 1 h 40 min\r\nBit rate                       : 83.0 kb/s\r\nChannel(s)                     : 6 channels\r\nChannel positions              : Front: L C R, Side: L R, LFE\r\nSampling rate                  : 44.1 kHz\r\nFrame rate                     : 43.066 FPS (1024 SPF)\r\nStream size                    : 59.9 MiB (11%)\r\nLanguage                       : Hindi\r\n\r\nText\r\nLanguage                       : English\r\n[img]https://lookimg.com/images/2017/10/23/K5SSR.jpg[/img]\r\n[img]https://lookimg.com/images/2017/10/23/K51ze.jpg[/img]\r\n[img]https://lookimg.com/images/2017/10/23/K55YU.jpg[/img][/center]","last_updated":"2017-10-23T12:08:12.483Z","parsed":{"xt":"urn:btih:2108562d7a25d74578befbca36b2a9043e05f24b","dn":"Paranormal Activity The Marked Ones 2014 EX 720p Esub BluRay Dua","tr":["udp://exodus.desync.com:6969","udp://open.demonii.com:1337","udp://tracker.coppersurfer.tk:6969","udp://tracker.leechers-paradise.org:6969","udp://zer0day.ch:1337"],"infoHash":"2108562d7a25d74578befbca36b2a9043e05f24b","infoHashBuffer":{"type":"Buffer","data":[33,8,86,45,122,37,215,69,120,190,251,202,54,178,169,4,62,5,242,75]},"name":"Paranormal Activity The Marked Ones 2014 EX 720p Esub BluRay Dua","announce":["udp://exodus.desync.com:6969","udp://open.demonii.com:1337","udp://tracker.coppersurfer.tk:6969","udp://tracker.leechers-paradise.org:6969","udp://zer0day.ch:1337"],"urlList":[]}}